<svg width="14" height="14" viewBox="0 0 14 14" fill="none" xmlns="http://www.w3.org/2000/svg">
<path d="M4.32184 10.6459L1.42224 7.0107C1.266 6.81482 1.05409 6.70477 0.83313 6.70477C0.61217 6.70477 0.40026 6.81482 0.244018 7.0107C0.0877759 7.20658 0 7.47226 0 7.74927C0 7.88644 0.0215497 8.02226 0.0634184 8.14899C0.105287 8.27571 0.166655 8.39086 0.244018 8.48785L3.73691 12.8669C4.0628 13.2755 4.58924 13.2755 4.91513 12.8669L13.756 1.78307C13.9122 1.58719 14 1.32152 14 1.0445C14 0.767481 13.9122 0.501809 13.756 0.305927C13.5997 0.110045 13.3878 0 13.1669 0C12.9459 0 12.734 0.110045 12.5778 0.305927L4.32184 10.6459Z" fill="black"/>
</svg>
